# xmcd
#
# Track frame offsets:
#	150
#	16395
#	30440
#	46987
#	63615
#	74627
#	92250
#	115880
#	134402
#	165905
#	184670
#	204375
#
# Disc length: 3011 seconds
#
# Revision: 3
# Processed by: cddbd v1.4PL0 Copyright (c) Steve Scherf et al.
# Submitted via: EasyCDDAExtractor 4.6.9.1
#
DISCID=9c0bc10c
DTITLE=Kate Ceberano And Her Sextet - Like Now
DYEAR=1990
DGENRE=Blues
TTITLE0=Like Now
TTITLE1=Talk To Me Baby
TTITLE2=Save Your Love For Me
TTITLE3=Pent-Up House
TTITLE4=Tight
TTITLE5=Your Blase
TTITLE6=Catalonian Knights
TTITLE7=Samba Minah
TTITLE8=My One And Only Love
TTITLE9=Kate's Blues
TTITLE10=Dindi
TTITLE11=Trying Times
EXTD=
EXTT0=
EXTT1=
EXTT2=
EXTT3=
EXTT4=
EXTT5=
EXTT6=
EXTT7=
EXTT8=
EXTT9=
EXTT10=
EXTT11=
PLAYORDER=
